HIERARCHY
ROOT Hips
{
  OFFSET 5.84602e-005 68.8428 3.50346
  CHANNELS 6 Xposition Yposition Zposition Zrotation Xrotation Yrotation
  JOINT Spine
  {
    OFFSET 0 8.597 -4.6522
    CHANNELS 3 Zrotation Xrotation Yrotation
    JOINT Spine1
    {
      OFFSET 0 7.8454 0.4098
      CHANNELS 3 Zrotation Xrotation Yrotation
      JOINT Spine2
      {
        OFFSET 0 9.7078 -2.1609
        CHANNELS 3 Zrotation Xrotation Yrotation
        JOINT Neck
        {
          OFFSET 0 21.8761 -0.4549
          CHANNELS 3 Zrotation Xrotation Yrotation
          JOINT Head
          {
            OFFSET 0 12.3537 3.3602
            CHANNELS 3 Zrotation Xrotation Yrotation
            End Site
            {
              OFFSET 0.0001 18.9506 0.5657
            }
          }
        }
        JOINT LeftShoulder
        {
          OFFSET 2.2086 21.1115 7.2329
          CHANNELS 3 Zrotation Xrotation Yrotation
          JOINT LeftArm
          {
            OFFSET 13.1193 3.0282 -4.8998
            CHANNELS 3 Zrotation Xrotation Yrotation
            JOINT LeftForeArm
            {
              OFFSET 27.4081 -0.0973053 -0.2375
              CHANNELS 3 Zrotation Xrotation Yrotation
              JOINT LeftHand
              {
                OFFSET 22.8641 0.0662994 -0.1369
                CHANNELS 3 Zrotation Xrotation Yrotation
                JOINT LeftHandIndex1
                {
                  OFFSET 8.8614 0.775009 2.4612
                  CHANNELS 3 Zrotation Xrotation Yrotation
                  JOINT LeftHandIndex2
                  {
                    OFFSET 3.3146 -0.808304 0.5841
                    CHANNELS 3 Zrotation Xrotation Yrotation
                    JOINT LeftHandIndex3
                    {
                      OFFSET 2.2628 -0.552002 0.3989
                      CHANNELS 3 Zrotation Xrotation Yrotation
                      End Site
                      {
                        OFFSET 1.6102 -0.4807 0.2612
                      }
                    }
                  }
                }
                JOINT LeftHandMiddle1
                {
                  OFFSET 8.9937 0.895004 0.2143
                  CHANNELS 3 Zrotation Xrotation Yrotation
                  JOINT LeftHandMiddle2
                  {
                    OFFSET 4.0984 0.0113983 -0.0242
                    CHANNELS 3 Zrotation Xrotation Yrotation
                    JOINT LeftHandMiddle3
                    {
                      OFFSET 2.2716 0.00689697 -0.0138001
                      CHANNELS 3 Zrotation Xrotation Yrotation
                      End Site
                      {
                        OFFSET 2.0404 -0.1441 0.0027
                      }
                    }
                  }
                }
                JOINT LeftHandRing1
                {
                  OFFSET 8.5234 0.597198 -2.0164
                  CHANNELS 3 Zrotation Xrotation Yrotation
                  JOINT LeftHandRing2
                  {
                    OFFSET 3.7188 -0.188293 -0.2328
                    CHANNELS 3 Zrotation Xrotation Yrotation
                    JOINT LeftHandRing3
                    {
                      OFFSET 2.1191 -0.106598 -0.1332
                      CHANNELS 3 Zrotation Xrotation Yrotation
                      End Site
                      {
                        OFFSET 1.8737 -0.2304 -0.0886
                      }
                    }
                  }
                }
                JOINT LeftHandPinky1
                {
                  OFFSET 7.9094 -0.601089 -3.4825
                  CHANNELS 3 Zrotation Xrotation Yrotation
                  JOINT LeftHandPinky2
                  {
                    OFFSET 2.2874 -0.477005 -0.6314
                    CHANNELS 3 Zrotation Xrotation Yrotation
                    JOINT LeftHandPinky3
                    {
                      OFFSET 1.6774 -0.349396 -0.4633
                      CHANNELS 3 Zrotation Xrotation Yrotation
                      End Site
                      {
                        OFFSET 1.4888 -0.4091 -0.3416
                      }
                    }
                  }
                }
                JOINT LeftHandThumb1
                {
                  OFFSET 1.833 -1.3875 1.3896
                  CHANNELS 3 Zrotation Xrotation Yrotation
                  JOINT LeftHandThumb2
                  {
                    OFFSET 3.4129 -1.121 2.5732
                    CHANNELS 3 Zrotation Xrotation Yrotation
                    JOINT LeftHandThumb3
                    {
                      OFFSET 2.2474 -0.804199 1.6192
                      CHANNELS 3 Zrotation Xrotation Yrotation
                      End Site
                      {
                        OFFSET 1.6527 -0.5689 1.1317
                      }
                    }
                  }
                }
              }
            }
          }
        }
        JOINT RightShoulder
        {
          OFFSET -2.2086 21.1115 7.2329
          CHANNELS 3 Zrotation Xrotation Yrotation
          JOINT RightArm
          {
            OFFSET -13.1216 3.0287 -4.9007
            CHANNELS 3 Zrotation Xrotation Yrotation
            JOINT RightForeArm
            {
              OFFSET -27.4081 -0.0973053 -0.2375
              CHANNELS 3 Zrotation Xrotation Yrotation
              JOINT RightHand
              {
                OFFSET -22.8641 0.0664063 -0.1369
                CHANNELS 3 Zrotation Xrotation Yrotation
                JOINT RightHandIndex1
                {
                  OFFSET -8.8614 0.774994 2.4612
                  CHANNELS 3 Zrotation Xrotation Yrotation
                  JOINT RightHandIndex2
                  {
                    OFFSET -3.3146 -0.808304 0.5841
                    CHANNELS 3 Zrotation Xrotation Yrotation
                    JOINT RightHandIndex3
                    {
                      OFFSET -2.2628 -0.552002 0.3989
                      CHANNELS 3 Zrotation Xrotation Yrotation
                      End Site
                      {
                        OFFSET -1.6102 -0.4807 0.2612
                      }
                    }
                  }
                }
                JOINT RightHandMiddle1
                {
                  OFFSET -8.9937 0.894989 0.2143
                  CHANNELS 3 Zrotation Xrotation Yrotation
                  JOINT RightHandMiddle2
                  {
                    OFFSET -4.0984 0.0113983 -0.0242
                    CHANNELS 3 Zrotation Xrotation Yrotation
                    JOINT RightHandMiddle3
                    {
                      OFFSET -2.2716 0.00691223 -0.0138001
                      CHANNELS 3 Zrotation Xrotation Yrotation
                      End Site
                      {
                        OFFSET -2.0404 -0.1441 0.0027
                      }
                    }
                  }
                }
                JOINT RightHandRing1
                {
                  OFFSET -8.5234 0.597198 -2.0164
                  CHANNELS 3 Zrotation Xrotation Yrotation
                  JOINT RightHandRing2
                  {
                    OFFSET -3.7188 -0.188309 -0.2328
                    CHANNELS 3 Zrotation Xrotation Yrotation
                    JOINT RightHandRing3
                    {
                      OFFSET -2.1191 -0.106598 -0.1332
                      CHANNELS 3 Zrotation Xrotation Yrotation
                      End Site
                      {
                        OFFSET -1.8737 -0.2304 -0.0886
                      }
                    }
                  }
                }
                JOINT RightHandPinky1
                {
                  OFFSET -7.9094 -0.601105 -3.4825
                  CHANNELS 3 Zrotation Xrotation Yrotation
                  JOINT RightHandPinky2
                  {
                    OFFSET -2.2874 -0.477005 -0.6314
                    CHANNELS 3 Zrotation Xrotation Yrotation
                    JOINT RightHandPinky3
                    {
                      OFFSET -1.6774 -0.349396 -0.4633
                      CHANNELS 3 Zrotation Xrotation Yrotation
                      End Site
                      {
                        OFFSET -1.4888 -0.4091 -0.3416
                      }
                    }
                  }
                }
                JOINT RightHandThumb1
                {
                  OFFSET -1.833 -1.38751 1.3896
                  CHANNELS 3 Zrotation Xrotation Yrotation
                  JOINT RightHandThumb2
                  {
                    OFFSET -3.41299 -1.12099 2.5732
                    CHANNELS 3 Zrotation Xrotation Yrotation
                    JOINT RightHandThumb3
                    {
                      OFFSET -2.24741 -0.804108 1.6192
                      CHANNELS 3 Zrotation Xrotation Yrotation
                      End Site
                      {
                        OFFSET -1.6527 -0.5689 1.1317
                      }
                    }
                  }
                }
              }
            }
          }
        }
      }
    }
  }
  JOINT RightUpLeg
  {
    OFFSET -9.1966 3.8861 -0.7581
    CHANNELS 3 Zrotation Xrotation Yrotation
    JOINT RightLeg
    {
      OFFSET -0.7359 -41.0265 0
      CHANNELS 3 Zrotation Xrotation Yrotation
      JOINT RightFoot
      {
        OFFSET 0 -40.2855 0
        CHANNELS 3 Zrotation Xrotation Yrotation
        JOINT RightToeBase
        {
          OFFSET 0 -5.6122 11.7359
          CHANNELS 3 Zrotation Xrotation Yrotation
          End Site
          {
            OFFSET 0 0 7.8731
          }
        }
      }
    }
  }
  JOINT LeftUpLeg
  {
    OFFSET 9.1965 3.8864 -0.7581
    CHANNELS 3 Zrotation Xrotation Yrotation
    JOINT LeftLeg
    {
      OFFSET 0.7359 -41.0268 0
      CHANNELS 3 Zrotation Xrotation Yrotation
      JOINT LeftFoot
      {
        OFFSET 0 -40.2855 0
        CHANNELS 3 Zrotation Xrotation Yrotation
        JOINT LeftToeBase
        {
          OFFSET 0 -5.6122 11.7359
          CHANNELS 3 Zrotation Xrotation Yrotation
          End Site
          {
            OFFSET 0 0 7.8731
          }
        }
      }
    }
  }
}
MOTION
Frames:	7
Frame Time:	0.0333333
5.84602e-005 68.8428 3.50346 0 0 -0 0 0 -0 0 0 -0 0 0 -0 0 0 -0 0 0 -0 0 0 -0 0 0 -0 0 0 -0 0 0 -0 0 0 -0 0 0 -0 0 0 -0 0 0 -0 -0.0146107 -8.87603e-005 -2.63497e-007 2.99804e-018 -2.42657e-020 -1.42182e-022 0 0 -0 -0.0187562 -0.001176 5.858e-005 5.06224e-018 3.88251e-019 1.21329e-020 0 0 -0 -0.012269 -0.00324817 0.000675346 -1.74678e-018 3.88251e-019 -0 0 0 -0 0 0 -0 0 0 -0 0 0 -0 0 0 -0 0 0 -0 0 0 -0 0 0 -0 0 0 -0 0 0 -0 0 0 -0 0.0149955 -9.10982e-005 2.64101e-007 -9.69331e-018 1.21329e-020 -4.7394e-023 0 0 -0 0.0189956 -0.00119102 -5.96516e-005 -5.41541e-019 0 2.42657e-020 0 0 -0 0.0122698 -0.00324857 -0.000673756 -2.00796e-019 0 -1.94126e-019 0 0 -0 0 0 -0 0 0 -0 3.39842 1.33031 -0.0637918 -5.65207e-008 0.834868 -0.000436188 -3.39935 -2.16518 -0.0642563 -8.89002e-024 -1.18485e-023 -1.48106e-024 -3.39844 1.35642 0.0640283 -3.18788e-007 0.782166 -0.000588827 3.39931 -2.13858 0.0634662 1.1399e-023 0 -0 
6.33965e-005 21.216 66.0888 -0 -69.6329 -0 0.000142463 -0.121762 -0.0667367 0.000143076 -0.243561 -0.133473 0.000143105 -0.243577 -0.133473 -0.000244078 16.3783 0.000850277 -4.73922e-009 6.75972 -4.5151e-009 -5.9702 -0.108697 -0.00842483 -57.5432 -0.339753 -2.93376 3.06293 -2.50977 -29.4471 -12.0943 0.217084 1.67101 3.18055e-015 -5.1684e-015 -1.59028e-015 -0 -4.77083e-015 -0 -3.18055e-015 -2.78299e-015 -0 3.18055e-015 -5.1684e-015 -1.59028e-015 -0.0146421 -8.81869e-005 -2.03797e-006 -3.18055e-015 8.34896e-015 -0 3.18055e-015 -5.1684e-015 -1.59028e-015 -0.0187378 -0.00117484 6.0522e-005 -6.36111e-015 2.78299e-015 -1.59028e-015 3.18055e-015 -5.1684e-015 -1.59028e-015 -0.0122311 -0.00323175 0.000673367 4.41391e-031 7.95139e-015 -3.18055e-015 3.18055e-015 -5.1684e-015 -1.59028e-015 -0 -4.77083e-015 -0 -3.18055e-015 -2.78299e-015 -0 5.9542 -0.145644 0.0197714 57.5339 -0.343954 2.94281 0.206332 0.29396 43.5837 12.0948 0.198355 -1.70998 4.32095e-007 -9.04679e-008 7.99274e-007 -4.32095e-007 9.0468e-008 -7.99274e-007 4.32095e-007 -9.04679e-008 7.99274e-007 4.32095e-007 -9.04679e-008 7.99274e-007 0.0149682 -9.28068e-005 8.85219e-007 0 0 -3.18055e-015 4.32095e-007 -9.04679e-008 7.99274e-007 0.0190572 -0.00120438 -5.68033e-005 4.77083e-015 -4.77083e-015 3.18055e-015 4.32095e-007 -9.04679e-008 7.99274e-007 0.0123253 -0.00326521 -0.000676665 3.18055e-015 -7.95139e-015 -0 4.32095e-007 -9.04679e-008 7.99274e-007 -4.32095e-007 9.0468e-008 -7.99274e-007 4.32095e-007 -9.04679e-008 7.99274e-007 -21.6285 -22.7468 -15.4295 -46.7588 70.0554 55.4835 0.223113 7.27473 2.90741 9.93923e-016 3.97569e-015 1.59028e-015 21.6269 -22.7483 15.429 46.7567 70.0567 -55.4852 -0.223032 7.27479 -2.91136 -1.40779e-006 1.30461e-006 -1.45067e-006 
3.28702e-005 0.0607911 90.8921 -180 -79.0323 -180 7.28654e-005 -0.151824 -0.0965415 -0.000110097 -0.303657 -0.193084 -0.000110151 -0.303647 -0.193084 -9.90471e-006 23.3402 2.26568e-005 1.9241e-008 9.33582 6.73139e-008 -8.3314 -0.34331 0.0653813 -83.6893 -0.45293 -4.17666 3.60138 -3.01314 -42.9576 -17.5547 0.223477 2.6032 8.74653e-015 -8.74653e-015 -3.18055e-015 1.03368e-014 -5.56597e-015 -9.54166e-015 7.15625e-015 -7.95139e-015 -0 8.74653e-015 -8.74653e-015 -3.18055e-015 -0.0146009 -8.84015e-005 3.44961e-006 7.95139e-016 -2.38542e-015 -0 8.74653e-015 -8.74653e-015 -3.18055e-015 -0.0187668 -0.00117664 5.81475e-005 1.59028e-015 -1.59028e-015 -0 8.74653e-015 -8.74653e-015 -3.18055e-015 -0.0122629 -0.00324463 0.000677585 1.59028e-015 -7.95139e-016 9.54166e-015 8.74653e-015 -8.74653e-015 -3.18055e-015 1.03368e-014 -5.56597e-015 -9.54166e-015 7.15625e-015 -7.95139e-015 -0 8.37469 -0.214329 -0.112482 83.6556 -0.448479 4.13469 0.226799 0.35833 63.5242 17.5413 0.287477 -2.47947 8.15017e-015 -7.95139e-016 3.18055e-015 -2.18663e-015 -7.95139e-016 -0 4.17448e-015 -1.59028e-015 3.18055e-015 8.15017e-015 -7.95139e-016 3.18055e-015 0.0149999 -9.14139e-005 1.52388e-006 5.96354e-016 0 -1.59028e-015 8.15017e-015 -7.95139e-016 3.18055e-015 0.0189994 -0.00119168 -5.97437e-005 -8.34896e-015 -1.59028e-015 1.59028e-015 8.15017e-015 -7.95139e-016 3.18055e-015 0.012277 -0.00325105 -0.000679123 5.76476e-015 7.95139e-016 1.59028e-015 8.15017e-015 -7.95139e-016 3.18055e-015 -2.18663e-015 -7.95139e-016 -0 4.17448e-015 -1.59028e-015 3.18055e-015 -36.9408 -31.9373 -25.1036 -124.701 57.3804 129.418 1.35888 11.7818 3.8032 -5.85357e-007 -7.79253e-008 -1.61384e-006 36.9273 -31.9377 25.0871 124.699 57.3799 -129.422 -1.37027 11.7822 -3.80128 1.89553e-008 -8.75372e-007 -1.32682e-008 
2.0506e-005 4.84157 85.554 -180 -85.9956 -180 -4.5236e-005 -0.0909427 -0.0898439 -0.00023303 -0.181886 -0.179688 -0.000233132 -0.181879 -0.179688 9.25467e-005 20.8905 -0.000256535 7.70299e-008 7.72803 4.72559e-008 -7.08216 -0.699628 0.22488 -78.4138 -0.341372 -3.72841 3.37494 -2.81389 -40.4625 -16.371 0.0194782 2.79656 -5.61867e-006 2.18909e-006 9.026e-007 1.59028e-015 -1.19271e-015 -9.54166e-015 -3.31828e-006 1.39441e-006 -9.10965e-007 -5.61867e-006 2.18909e-006 9.026e-007 -0.0146238 -8.46027e-005 1.74891e-006 6.62086e-032 3.97569e-016 -9.54166e-015 -5.61867e-006 2.18909e-006 9.026e-007 -0.0187668 -0.00117374 5.47892e-005 3.97569e-015 3.97569e-016 3.18055e-015 -5.61867e-006 2.18909e-006 9.026e-007 -0.0122234 -0.00323522 0.000677651 -3.18055e-015 3.97569e-016 -6.36111e-015 -5.61867e-006 2.18909e-006 9.026e-007 1.59028e-015 -1.19271e-015 -9.54166e-015 -3.31828e-006 1.39441e-006 -9.10965e-007 7.26143 -0.201182 -0.395083 78.3405 -0.315551 3.57535 0.349026 0.602226 59.8218 16.3307 0.267681 -2.30847 1.88845e-015 7.95139e-016 3.18055e-015 1.88845e-015 1.19271e-015 -0 1.19271e-015 -5.96354e-016 -0 1.88845e-015 7.95139e-016 3.18055e-015 0.0150044 -9.23215e-005 -7.49589e-007 1.49089e-015 3.18055e-015 3.18055e-015 1.88845e-015 7.95139e-016 3.18055e-015 0.0190057 -0.00119421 -5.90785e-005 2.38542e-015 9.93923e-016 -3.18055e-015 1.88845e-015 7.95139e-016 3.18055e-015 0.0122491 -0.00324057 -0.000676152 1.68967e-015 -9.93923e-016 -3.18055e-015 1.88845e-015 7.95139e-016 3.18055e-015 1.88845e-015 1.19271e-015 -0 1.19271e-015 -5.96354e-016 -0 -33.9777 -30.0663 -23.5777 -114.956 63.1934 121.066 0.395581 10.9803 4.15497 -7.95139e-016 4.77083e-015 2.22639e-014 33.9435 -30.0617 23.5308 114.955 63.1932 -121.071 -0.430595 10.9811 -4.13754 -0 0 3.18055e-015 
8.05913e-006 4.84165 85.554 -180 -85.9956 -180 -0.000174371 -0.0468392 -0.0902091 -0.000422457 -0.093673 -0.180419 -0.000422464 -0.0936863 -0.180418 -0.000561741 20.1531 0.00163728 -7.93332e-008 6.87958 1.28423e-007 -6.48772 -1.03109 0.375395 -78.852 -0.27187 -3.58692 3.26441 -2.70523 -40.8781 -16.3943 -0.146501 3.12426 -3.57812e-015 1.98785e-015 -3.18055e-015 -1.98785e-015 1.59028e-015 -6.36111e-015 -2.78299e-015 7.95139e-016 3.18055e-015 -3.57812e-015 1.98785e-015 -3.18055e-015 -0.0146306 -8.87639e-005 -3.59709e-006 2.38542e-015 3.97569e-016 -3.18055e-015 -3.57812e-015 1.98785e-015 -3.18055e-015 -0.018748 -0.00117825 5.76467e-005 -1.59028e-015 -3.97569e-016 1.27222e-014 -3.57812e-015 1.98785e-015 -3.18055e-015 -0.012331 -0.00325944 0.000678692 -7.65762e-007 3.90146e-007 -8.84557e-007 -3.57812e-015 1.98785e-015 -3.18055e-015 -1.98785e-015 1.59028e-015 -6.36111e-015 -2.78299e-015 7.95139e-016 3.18055e-015 6.79035 -0.198645 -0.648578 78.7421 -0.22773 3.33353 0.444223 0.796293 60.4181 16.3307 0.267686 -2.30847 -8.44835e-015 -4.17448e-015 -0 -1.0138e-014 -2.38542e-015 9.54166e-015 -1.14301e-014 -3.18055e-015 3.18055e-015 -8.44835e-015 -4.17448e-015 -0 0.0149877 -9.12983e-005 -2.65279e-006 -2.28602e-015 1.78906e-015 3.18055e-015 -8.44835e-015 -4.17448e-015 -0 0.0190283 -0.00119509 -6.22981e-005 -1.98785e-016 3.97569e-016 3.18055e-015 -8.44835e-015 -4.17448e-015 -0 0.012304 -0.00325578 -0.000680583 1.2921e-015 1.98785e-016 -0 -8.44835e-015 -4.17448e-015 -0 -1.0138e-014 -2.38542e-015 9.54166e-015 -1.14301e-014 -3.18055e-015 3.18055e-015 -34.5623 -30.0814 -24.2703 -114.956 63.1934 121.064 -0.197152 11.0752 4.58416 2.59709e-007 1.48266e-007 -1.70658e-006 34.5082 -30.0734 24.1953 114.956 63.193 -121.069 0.140598 11.0767 -4.55282 -6.00849e-008 -1.04857e-006 -3.3406e-006 
-8.14005e-006 4.84174 85.5541 -180 -85.9956 -180 -0.000303147 -0.0023253 -0.090191 -0.000609926 -0.00465322 -0.180382 -0.000609906 -0.00465338 -0.180382 -0.000486869 19.4132 0.00147964 -6.81417e-008 6.03012 1.35032e-008 -5.8919 -1.36282 0.527377 -79.2906 -0.203442 -3.44487 3.15463 -2.59573 -41.2935 -16.4167 -0.312627 3.45199 1.19271e-015 1.19271e-015 -0 -6.62086e-032 -1.19271e-015 -3.18055e-015 -2.38542e-015 -7.95139e-016 3.18055e-015 1.19271e-015 1.19271e-015 -0 -0.0146101 -8.88823e-005 -1.85458e-006 -3.97569e-016 7.95139e-016 3.18055e-015 1.19271e-015 1.19271e-015 -0 -0.0187478 -0.00117562 6.36314e-005 2.78299e-015 7.95139e-016 -9.54166e-015 1.19271e-015 1.19271e-015 -0 -0.0123004 -0.00325825 0.000679691 7.95139e-016 -1.98785e-015 3.18055e-015 1.19271e-015 1.19271e-015 -0 -6.62086e-032 -1.19271e-015 -3.18055e-015 -2.38542e-015 -7.95139e-016 3.18055e-015 6.31905 -0.196034 -0.903856 79.1442 -0.141584 3.09102 0.537477 0.991499 61.0146 16.3307 0.267692 -2.30847 -9.14409e-015 -5.96354e-015 6.36111e-015 -9.83984e-015 -4.96962e-015 6.36111e-015 -1.17283e-014 -5.96354e-015 -3.18055e-015 -9.14409e-015 -5.96354e-015 6.36111e-015 0.0149853 -9.14995e-005 1.74378e-006 1.43965e-006 -6.09233e-007 1.61973e-006 -9.14409e-015 -5.96354e-015 6.36111e-015 0.0190094 -0.00119058 -5.75675e-005 7.95139e-016 -1.78906e-015 -3.18055e-015 -9.14409e-015 -5.96354e-015 6.36111e-015 0.0122588 -0.00324744 -0.000679183 -1.49089e-015 -1.78906e-015 -3.18055e-015 -9.14409e-015 -5.96354e-015 6.36111e-015 -9.83984e-015 -4.96962e-015 6.36111e-015 -1.17283e-014 -5.96354e-015 -3.18055e-015 -35.1474 -30.0906 -24.9636 -114.957 63.1931 121.063 -0.79121 11.1657 5.01464 1.83068e-006 -5.06854e-007 -1.9029e-007 35.0733 -30.0797 24.8602 114.958 63.1927 -121.068 0.713008 11.1683 -4.96941 -2.60411e-007 1.48624e-007 1.70646e-006 
-2.61761e-005 4.84183 85.5541 -180 -85.9956 -180 -0.00043036 0.0420235 -0.0898009 -0.000794819 0.0840529 -0.179602 -0.000794854 0.0840508 -0.179602 0.000200608 18.6737 -0.000636758 1.24628e-008 5.1797 -2.83418e-008 -5.29473 -1.69204 0.681194 -79.7295 -0.136085 -3.30224 3.04566 -2.48541 -41.7088 -16.4382 -0.47894 3.7797 7.95139e-016 -2.78299e-015 3.18055e-015 7.95139e-016 -7.95139e-016 -6.36111e-015 -4.41391e-032 -7.95139e-016 -3.18055e-015 7.95139e-016 -2.78299e-015 3.18055e-015 -0.014619 -8.51648e-005 1.1938e-006 -4.41391e-032 -3.97569e-016 -6.36111e-015 7.95139e-016 -2.78299e-015 3.18055e-015 -0.0187561 -0.00117353 5.35693e-005 1.59028e-015 2.38542e-015 -3.18055e-015 7.95139e-016 -2.78299e-015 3.18055e-015 -0.012282 -0.00325209 0.000679459 7.95139e-016 -2.22639e-014 -3.18055e-015 7.95139e-016 -2.78299e-015 3.18055e-015 7.95139e-016 -7.95139e-016 -6.36111e-015 -4.41391e-032 -7.95139e-016 -3.18055e-015 5.84755 -0.190521 -1.16118 79.5468 -0.0571301 2.84785 0.628716 1.18776 61.6111 16.3307 0.267688 -2.30847 1.4417e-006 -6.06822e-007 1.62784e-006 -2.5842e-015 7.95139e-016 6.36111e-015 -1.98785e-015 7.95139e-016 6.36111e-015 1.4417e-006 -6.06822e-007 1.62784e-006 0.0149798 -9.20578e-005 -7.79109e-007 -7.95139e-016 5.96354e-016 -0 1.4417e-006 -6.06822e-007 1.62784e-006 0.0189812 -0.00118926 -6.017e-005 -1.39149e-015 7.95139e-016 -0 1.4417e-006 -6.06822e-007 1.62784e-006 0.0122638 -0.00324479 -0.000670629 2.88238e-015 1.19271e-015 -0 1.4417e-006 -6.06822e-007 1.62784e-006 -2.5842e-015 7.95139e-016 6.36111e-015 -1.98785e-015 7.95139e-016 6.36111e-015 -35.7331 -30.0934 -25.6575 -114.957 63.1931 121.06 -1.38653 11.2518 5.44648 -7.36809e-007 8.19175e-007 -1.59451e-006 35.6391 -30.08 25.5257 114.959 63.1925 -121.067 1.28664 11.2558 -5.38723 -3.50831e-007 1.89803e-006 1.67807e-006 
